<svg width="682.66672" height="682" xmlns="http://www.w3.org/2000/svg">

 <g>
  <title>background</title>
  <rect fill="none" id="canvas_background" height="602" width="802" y="-1" x="-1"/>
 </g>
 <g>
  <title>Layer 1</title>
  <path fill="#ffffff" id="svg_1" d="m626.8125,64.03516c-7.375,-27.41797 -28.99219,-49.03125 -56.40625,-56.41407c-50.08203,-13.70312 -250.41406,-13.70312 -250.41406,-13.70312s-200.32422,0 -250.40625,13.18359c-26.88672,7.375 -49.03125,29.51953 -56.40625,56.9336c-13.17969,50.07812 -13.17969,153.93359 -13.17969,153.93359s0,104.37891 13.17969,153.93359c7.38281,27.41407 28.99219,49.02735 56.41015,56.41016c50.60547,13.70703 250.41016,13.70703 250.41016,13.70703s200.32422,0 250.40625,-13.18359c27.41797,-7.37891 49.03125,-28.99219 56.41406,-56.40625c13.17578,-50.08203 13.17578,-153.9336 13.17578,-153.9336s0.52735,-104.38281 -13.18359,-154.46093zm-370.60156,249.8789l0,-191.89062l166.58594,95.94531l-166.58594,95.94531zm0,0"/>
 </g>
</svg>